<svg width="96" height="26" viewBox="0 0 96 26" fill="none" xmlns="http://www.w3.org/2000/svg">
<path d="M20.3566 9.21599C20.7579 9.15066 21.0239 9.034 21.1546 8.866C21.2946 8.698 21.3646 8.40866 21.3646 7.99799L21.3786 2.66399C21.3786 2.36533 21.3459 2.16466 21.2806 2.06199C21.2246 1.95933 21.1079 1.90799 20.9306 1.90799C20.8372 1.90799 20.7486 1.91266 20.6646 1.92199C20.5806 1.93133 20.5246 1.93599 20.4966 1.93599L20.4126 1.80999L20.5246 0.969994C20.6926 0.979327 21.0146 0.988661 21.4906 0.997995C21.9759 1.00733 22.4986 1.01199 23.0586 1.01199C24.9719 1.01199 26.2832 0.955994 26.9926 0.843994L27.1046 0.997995C27.0766 1.14733 27.0252 1.47866 26.9506 1.99199C26.8852 2.49599 26.8386 3.01866 26.8106 3.55999L25.5646 3.62999C25.5646 3.58333 25.5692 3.50399 25.5786 3.39199C25.5879 3.27999 25.5926 3.16799 25.5926 3.05599C25.5926 2.78533 25.5552 2.58933 25.4806 2.46799C25.4152 2.34666 25.2799 2.26733 25.0746 2.22999C24.8786 2.18333 24.5519 2.15999 24.0946 2.15999C23.8519 2.15999 23.6839 2.16933 23.5906 2.18799C23.4972 2.20666 23.4319 2.24866 23.3946 2.31399C23.3666 2.37933 23.3479 2.48666 23.3386 2.63599L23.2406 5.07199L24.5566 5.08599C24.7339 5.08599 24.9952 5.06733 25.3406 5.02999C25.6859 4.99266 25.9146 4.96933 26.0266 4.95999L26.1246 5.08599L25.9286 6.27599C25.8166 6.26666 25.5972 6.25733 25.2706 6.24799C24.9532 6.23866 24.6172 6.23399 24.2626 6.23399C23.9266 6.23399 23.5719 6.26666 23.1986 6.33199L23.1566 8.03999C23.1566 8.39466 23.1939 8.63266 23.2686 8.75399C23.3526 8.87533 23.5159 8.936 23.7586 8.936C23.9079 8.936 24.0806 8.92666 24.2766 8.908C24.4726 8.88933 24.6032 8.87533 24.6686 8.866L24.7946 9.00599L24.6406 10.056C24.4819 10.0467 24.1832 10.0327 23.7446 10.014C23.3152 10.0047 22.8859 9.99999 22.4566 9.99999C22.0272 9.99999 21.5839 10.0187 21.1266 10.056C20.6786 10.1027 20.3892 10.1353 20.2586 10.154L20.3566 9.21599Z" fill="black"/>
<path d="M32.8373 10.168C32.016 10.168 31.302 9.99066 30.6953 9.63599C30.098 9.27199 29.636 8.75866 29.3093 8.09599C28.992 7.43333 28.8333 6.64933 28.8333 5.74399C28.8333 4.77333 29.0247 3.91933 29.4073 3.18199C29.79 2.44466 30.3267 1.87066 31.0173 1.45999C31.7173 1.04933 32.52 0.843994 33.4253 0.843994C34.2653 0.843994 34.9887 1.02133 35.5953 1.37599C36.2113 1.72133 36.678 2.22533 36.9953 2.88799C37.322 3.54133 37.4853 4.32066 37.4853 5.22599C37.4853 6.19666 37.2893 7.05999 36.8973 7.81599C36.5147 8.56266 35.9687 9.14133 35.2593 9.55199C34.5593 9.96266 33.752 10.168 32.8373 10.168ZM33.2013 8.97799C33.8733 8.97799 34.396 8.71666 34.7693 8.19399C35.152 7.662 35.3433 6.91533 35.3433 5.95399C35.3433 4.73133 35.1427 3.79799 34.7413 3.15399C34.34 2.50066 33.7707 2.17399 33.0333 2.17399C32.3707 2.17399 31.8527 2.43999 31.4793 2.97199C31.1153 3.49466 30.9333 4.23666 30.9333 5.19799C30.9333 6.42066 31.1293 7.35866 31.5213 8.01199C31.9227 8.65599 32.4827 8.97799 33.2013 8.97799Z" fill="black"/>
<path d="M46.4706 10.224C45.8639 10.224 45.3553 9.79 44.9446 8.922L43.7266 6.45799H42.7326L42.7046 8.03999C42.7046 8.36666 42.7279 8.60466 42.7746 8.75399C42.8213 8.89399 42.9099 8.98733 43.0406 9.03399C43.1713 9.08066 43.3953 9.10866 43.7126 9.11799L43.7546 9.20199L43.6286 10.056C43.4606 10.0467 43.1666 10.0373 42.7466 10.028C42.3266 10.0187 41.9393 10.014 41.5846 10.014C41.2393 10.014 40.8846 10.0233 40.5206 10.042C40.1566 10.0607 39.9186 10.0747 39.8066 10.084L39.9326 9.15999C40.3246 9.11333 40.5859 9.01066 40.7166 8.852C40.8566 8.69333 40.9266 8.41333 40.9266 8.01199V2.59399C40.9266 2.32333 40.8939 2.14133 40.8286 2.04799C40.7726 1.95466 40.6559 1.90799 40.4786 1.90799C40.3759 1.90799 40.2779 1.91266 40.1846 1.92199C40.0913 1.93133 40.0306 1.93599 40.0026 1.93599L39.9186 1.82399L40.0446 0.983994C40.1753 0.983994 40.4133 0.988661 40.7586 0.997995C41.1133 1.00733 41.4586 1.01199 41.7946 1.01199C42.1679 1.01199 42.5693 1.00733 42.9986 0.997995C43.4373 0.979328 43.7406 0.965328 43.9086 0.955994C44.9726 0.955994 45.7846 1.16133 46.3446 1.57199C46.9139 1.98266 47.1986 2.57533 47.1986 3.34999C47.1986 3.90066 47.0353 4.40466 46.7086 4.86199C46.3819 5.31933 45.9153 5.70199 45.3086 6.00999L46.5406 8.01199C46.8019 8.44133 47.0539 8.74933 47.2966 8.936C47.5393 9.12266 47.8099 9.21599 48.1086 9.21599L48.2066 9.342L48.1086 10.07L46.4706 10.224ZM44.0346 5.37999C44.3426 5.24933 44.6226 5.05799 44.8746 4.80599C45.1266 4.54466 45.2526 4.14333 45.2526 3.60199C45.2526 3.08866 45.0799 2.70599 44.7346 2.45399C44.3893 2.20199 43.8573 2.07599 43.1386 2.07599C43.0453 2.07599 42.9799 2.09466 42.9426 2.13199C42.9146 2.16933 42.8959 2.25333 42.8866 2.38399C42.8306 3.34533 42.7933 4.29733 42.7746 5.23999L44.0346 5.37999Z" fill="black"/>
<path d="M57.4414 7.35399C57.292 8.08199 57.166 8.94533 57.0634 9.94399L56.9234 10.098C55.1407 10.0327 53.6894 9.99999 52.5694 9.99999C51.7854 9.99999 50.9874 10.0467 50.1754 10.14L50.2734 9.20199C50.6654 9.14599 50.9314 9.034 51.0714 8.866C51.2114 8.698 51.2814 8.40866 51.2814 7.99799L51.2954 2.66399C51.2954 2.35599 51.2674 2.15533 51.2114 2.06199C51.1554 1.95933 51.034 1.90799 50.8474 1.90799C50.726 1.90799 50.5814 1.91733 50.4134 1.93599L50.3294 1.80999L50.4414 0.969994H50.7214C51.384 0.997994 52.1354 1.01199 52.9754 1.01199C55.0567 1.01199 56.4754 0.955994 57.2314 0.843994L57.3434 0.997995C57.2687 1.34333 57.1987 1.75399 57.1334 2.22999C57.0774 2.70599 57.04 3.13999 57.0214 3.53199L55.7754 3.61599L55.8034 3.05599C55.8034 2.77599 55.7614 2.57999 55.6774 2.46799C55.6027 2.34666 55.444 2.26733 55.2014 2.22999C54.968 2.18333 54.5714 2.15999 54.0114 2.15999C53.7687 2.15999 53.6007 2.16933 53.5074 2.18799C53.414 2.20666 53.3487 2.24866 53.3114 2.31399C53.2834 2.37933 53.2647 2.48666 53.2554 2.63599L53.1574 4.83399L54.4734 4.84799C54.6694 4.84799 54.912 4.83866 55.2014 4.81999C55.5 4.79199 55.7987 4.75933 56.0974 4.72199L56.2094 4.84799L56.0134 6.03799C55.892 6.03799 55.7987 6.03333 55.7334 6.02399C55.08 6.00533 54.562 5.99599 54.1794 5.99599C53.89 5.99599 53.5307 6.02399 53.1014 6.07999L53.0734 8.08199C53.0734 8.34333 53.092 8.52999 53.1294 8.64199C53.176 8.75399 53.2554 8.82866 53.3674 8.866C53.4887 8.90333 53.694 8.922 53.9834 8.922C54.5994 8.922 55.0427 8.88933 55.3134 8.824C55.5934 8.74933 55.794 8.60466 55.9154 8.39C56.0367 8.17533 56.13 7.82066 56.1954 7.32599L57.3434 7.22799L57.4414 7.35399Z" fill="black"/>
<path d="M62.4632 10.168C62.0339 10.168 61.6372 10.126 61.2732 10.042C60.9092 9.96733 60.6059 9.88333 60.3632 9.79C60.1299 9.69666 60.0132 9.64533 60.0132 9.63599L59.9012 9.43999C59.9105 9.37466 59.9292 9.23466 59.9572 9.01999C59.9945 8.79599 60.0319 8.50199 60.0692 8.13799C60.1065 7.76466 60.1252 7.40533 60.1252 7.05999L61.2732 6.97599C61.2732 7.49866 61.3199 7.9 61.4132 8.18C61.5065 8.46 61.6605 8.66066 61.8752 8.78199C62.0992 8.89399 62.4165 8.95 62.8272 8.95C63.2752 8.95 63.6345 8.85199 63.9052 8.65599C64.1759 8.45999 64.3112 8.18933 64.3112 7.84399C64.3112 7.53599 64.1665 7.27466 63.8772 7.05999C63.5972 6.84533 63.1585 6.59333 62.5612 6.30399C62.5239 6.28533 62.4165 6.23399 62.2392 6.14999C61.5392 5.81399 60.9932 5.45933 60.6012 5.08599C60.2092 4.71266 60.0132 4.22733 60.0132 3.62999C60.0132 3.09799 60.1719 2.62199 60.4892 2.20199C60.8065 1.77266 61.2452 1.44133 61.8052 1.20799C62.3745 0.965328 63.0185 0.843994 63.7372 0.843994C64.1479 0.843994 64.5259 0.871994 64.8712 0.927995C65.2259 0.983995 65.5059 1.04466 65.7112 1.10999C65.9259 1.16599 66.0612 1.20333 66.1172 1.22199L66.2152 1.40399C66.2059 1.45999 66.1779 1.60466 66.1312 1.83799C66.0845 2.06199 66.0379 2.35133 65.9912 2.70599C65.9445 3.06066 65.9072 3.42466 65.8792 3.79799L64.8432 3.88199L64.7172 3.79799C64.7172 3.76999 64.7219 3.71399 64.7312 3.62999C64.7405 3.53666 64.7452 3.42466 64.7452 3.29399C64.7452 2.87399 64.6379 2.57533 64.4232 2.39799C64.2179 2.22066 63.8679 2.13199 63.3732 2.13199C62.9719 2.13199 62.6405 2.22999 62.3792 2.42599C62.1272 2.61266 62.0012 2.85533 62.0012 3.15399C62.0012 3.37799 62.0805 3.58333 62.2392 3.76999C62.4072 3.94733 62.6032 4.10133 62.8272 4.23199C63.0605 4.36266 63.3965 4.53533 63.8352 4.74999C64.3579 5.00199 64.7872 5.23066 65.1232 5.43599C65.4685 5.64133 65.7579 5.90266 65.9912 6.22C66.2245 6.53733 66.3412 6.91533 66.3412 7.35399C66.3412 7.91399 66.1779 8.40866 65.8512 8.838C65.5339 9.258 65.0812 9.58466 64.4932 9.818C63.9145 10.0513 63.2379 10.168 62.4632 10.168Z" fill="black"/>
<path d="M69.9681 9.17399C70.3974 9.13666 70.7054 9.08066 70.8921 9.00599C71.0787 8.93133 71.2047 8.80066 71.2701 8.614C71.3354 8.42733 71.3681 8.11933 71.3681 7.68999V2.07599C70.8267 2.09466 70.4441 2.14133 70.2201 2.21599C70.0054 2.29066 69.8561 2.44466 69.7721 2.67799C69.6881 2.90199 69.6134 3.31266 69.5481 3.90999L68.4001 3.99399C68.4654 3.21933 68.5214 2.22533 68.5681 1.01199L68.7221 0.857994L70.1081 1.01199H74.4761L75.8901 0.857994L76.0441 1.01199C76.0627 2.13199 76.1094 3.09799 76.1841 3.90999L75.0361 3.99399C74.9614 3.35933 74.8821 2.92533 74.7981 2.69199C74.7234 2.45866 74.5834 2.30466 74.3781 2.22999C74.1821 2.14599 73.8274 2.09466 73.3141 2.07599C73.2674 2.76666 73.2254 3.70466 73.1881 4.88999C73.1601 6.07533 73.1461 7.15333 73.1461 8.12399C73.1461 8.46933 73.2067 8.71666 73.3281 8.866C73.4494 9.01533 73.6454 9.08999 73.9161 9.08999C74.1494 9.08999 74.3967 9.07599 74.6581 9.04799L74.7141 9.11799L74.5881 10.056C73.5987 10.0187 72.7961 9.99999 72.1801 9.99999C71.6947 9.99999 70.9201 10.028 69.8561 10.084L69.9681 9.17399Z" fill="black"/>
<path d="M5.26998 25.224C4.56998 23.0027 3.84198 20.8187 3.08598 18.672H2.97398C2.97398 18.7747 2.95531 19.1153 2.91798 19.694C2.88065 20.2727 2.84798 20.7533 2.81998 21.136C2.70798 22.704 2.65198 23.5487 2.65198 23.67C2.65198 23.9687 2.80131 24.118 3.09998 24.118L3.57598 24.104L3.65998 24.174L3.50598 25.056C2.72198 25.0187 2.17598 25 1.86798 25C1.65331 25 1.39198 25.014 1.08398 25.042C0.785313 25.07 0.584646 25.0933 0.481979 25.112L0.565979 24.202C0.836646 24.174 1.03265 24.09 1.15398 23.95C1.27531 23.8007 1.36398 23.5487 1.41998 23.194C1.50398 22.466 1.61598 21.3787 1.75598 19.932C1.90531 18.4853 1.97998 17.692 1.97998 17.552C1.97998 17.3 1.90531 17.1273 1.75598 17.034C1.61598 16.9407 1.33598 16.8753 0.915979 16.838L0.845979 16.754L0.971979 15.942C1.73731 15.9887 2.32065 16.012 2.72198 16.012C2.92731 16.012 3.42198 15.9933 4.20598 15.956C4.57931 17.272 5.09731 18.9847 5.75998 21.094L5.99798 21.822H6.10998C6.16598 21.6353 6.24065 21.402 6.33398 21.122C6.42731 20.8327 6.52531 20.5247 6.62798 20.198C7.10398 18.7793 7.55665 17.3793 7.98598 15.998C8.18198 15.998 8.34065 16.0027 8.46198 16.012L9.20398 16.026L9.63798 16.012C9.83398 16.012 10.086 16.0027 10.394 15.984C10.702 15.9653 10.926 15.9467 11.066 15.928L11.122 15.984L11.038 16.824C10.6366 16.8613 10.3613 16.9313 10.212 17.034C10.072 17.1367 10.002 17.314 10.002 17.566C10.002 17.8553 10.0393 18.5927 10.114 19.778C10.1886 20.954 10.2633 21.9713 10.338 22.83C10.394 23.3433 10.464 23.6887 10.548 23.866C10.6413 24.034 10.8 24.118 11.024 24.118C11.1266 24.118 11.2106 24.1133 11.276 24.104C11.3506 24.0947 11.3973 24.09 11.416 24.09L11.472 24.16L11.346 25.042C11.206 25.042 11.08 25.0373 10.968 25.028C10.5573 25.0093 10.212 25 9.93198 25C9.66131 25 9.30198 25.014 8.85398 25.042C8.41531 25.07 8.11198 25.0933 7.94398 25.112L8.04198 24.202C8.32198 24.1647 8.52265 24.0947 8.64398 23.992C8.76531 23.88 8.82598 23.7167 8.82598 23.502C8.82598 23.4647 8.78865 22.886 8.71398 21.766C8.61131 20.3007 8.55065 19.2693 8.53198 18.672H8.40598C7.62198 20.856 6.89398 22.998 6.22198 25.098L5.26998 25.224Z" fill="black"/>
<path d="M21.0455 22.354C20.8961 23.082 20.7701 23.9453 20.6675 24.944L20.5275 25.098C18.7448 25.0327 17.2935 25 16.1735 25C15.3895 25 14.5915 25.0467 13.7795 25.14L13.8775 24.202C14.2695 24.146 14.5355 24.034 14.6755 23.866C14.8155 23.698 14.8855 23.4087 14.8855 22.998L14.8995 17.664C14.8995 17.356 14.8715 17.1553 14.8155 17.062C14.7595 16.9593 14.6381 16.908 14.4515 16.908C14.3301 16.908 14.1855 16.9173 14.0175 16.936L13.9335 16.81L14.0455 15.97H14.3255C14.9881 15.998 15.7395 16.012 16.5795 16.012C18.6608 16.012 20.0795 15.956 20.8355 15.844L20.9475 15.998C20.8728 16.3433 20.8028 16.754 20.7375 17.23C20.6815 17.706 20.6441 18.14 20.6255 18.532L19.3795 18.616L19.4075 18.056C19.4075 17.776 19.3655 17.58 19.2815 17.468C19.2068 17.3467 19.0481 17.2673 18.8055 17.23C18.5721 17.1833 18.1755 17.16 17.6155 17.16C17.3728 17.16 17.2048 17.1693 17.1115 17.188C17.0181 17.2067 16.9528 17.2487 16.9155 17.314C16.8875 17.3793 16.8688 17.4867 16.8595 17.636L16.7615 19.834L18.0775 19.848C18.2735 19.848 18.5161 19.8387 18.8055 19.82C19.1041 19.792 19.4028 19.7593 19.7015 19.722L19.8135 19.848L19.6175 21.038C19.4961 21.038 19.4028 21.0333 19.3375 21.024C18.6841 21.0053 18.1661 20.996 17.7835 20.996C17.4941 20.996 17.1348 21.024 16.7055 21.08L16.6775 23.082C16.6775 23.3433 16.6961 23.53 16.7335 23.642C16.7801 23.754 16.8595 23.8287 16.9715 23.866C17.0928 23.9033 17.2981 23.922 17.5875 23.922C18.2035 23.922 18.6468 23.8893 18.9175 23.824C19.1975 23.7493 19.3981 23.6047 19.5195 23.39C19.6408 23.1753 19.7341 22.8207 19.7995 22.326L20.9475 22.228L21.0455 22.354Z" fill="black"/>
<path d="M27.4393 25.168C27.29 25.1493 26.982 25.1167 26.5153 25.07C26.058 25.0233 25.6613 25 25.3253 25C25.0173 25 24.672 25.0187 24.2893 25.056C23.9066 25.0933 23.6593 25.1213 23.5473 25.14L23.6313 24.202C24.0326 24.1367 24.3033 24.02 24.4433 23.852C24.5833 23.684 24.6533 23.404 24.6533 23.012V17.678C24.6533 17.3793 24.6253 17.1787 24.5693 17.076C24.5133 16.9733 24.3966 16.922 24.2193 16.922C24.1166 16.922 24.0186 16.9267 23.9253 16.936C23.832 16.9453 23.7713 16.95 23.7433 16.95L23.6733 16.824L23.7853 15.97C23.916 15.97 24.1586 15.9793 24.5133 15.998C24.868 16.0073 25.2133 16.012 25.5493 16.012C25.96 16.012 26.3893 16.0073 26.8373 15.998C27.2853 15.9793 27.5933 15.9653 27.7613 15.956C28.6946 15.956 29.502 16.124 30.1833 16.46C30.8646 16.796 31.3873 17.2767 31.7513 17.902C32.1153 18.5273 32.2973 19.274 32.2973 20.142C32.2973 21.1127 32.0873 21.9807 31.6673 22.746C31.2566 23.5113 30.6826 24.1087 29.9453 24.538C29.208 24.958 28.3726 25.168 27.4393 25.168ZM27.0053 17.132C26.856 17.132 26.7533 17.1553 26.6973 17.202C26.6413 17.2487 26.6086 17.3373 26.5993 17.468C26.478 20.072 26.4173 21.906 26.4173 22.97C26.4173 23.25 26.45 23.4647 26.5153 23.614C26.5806 23.754 26.6973 23.852 26.8653 23.908C27.0426 23.964 27.2946 23.992 27.6213 23.992C28.4426 23.992 29.068 23.7027 29.4973 23.124C29.936 22.5453 30.1553 21.696 30.1553 20.576C30.1553 19.3907 29.894 18.5227 29.3713 17.972C28.858 17.412 28.0693 17.132 27.0053 17.132Z" fill="black"/>
<path d="M34.724 24.23C35.1347 24.146 35.41 24.0293 35.55 23.88C35.69 23.7213 35.76 23.446 35.76 23.054V17.636C35.76 17.3467 35.7273 17.1553 35.662 17.062C35.5967 16.9593 35.4613 16.908 35.256 16.908L34.766 16.922L34.696 16.81L34.808 15.998L36.74 16.012C37.048 16.012 37.7013 15.9793 38.7 15.914L38.63 16.838C38.2753 16.8847 38.0373 16.9593 37.916 17.062C37.804 17.1553 37.7387 17.3327 37.72 17.594C37.5987 19.7967 37.538 21.6493 37.538 23.152C37.538 23.5347 37.5753 23.7913 37.65 23.922C37.7247 24.0527 37.8693 24.118 38.084 24.118C38.1867 24.118 38.392 24.104 38.7 24.076L38.756 24.16L38.63 25.042L38.126 25.028L36.572 25C36.1427 25 35.4987 25.042 34.64 25.126L34.724 24.23Z" fill="black"/>
<path d="M42.1089 24.174C42.5382 24.1367 42.8462 24.0807 43.0329 24.006C43.2196 23.9313 43.3456 23.8007 43.4109 23.614C43.4762 23.4273 43.5089 23.1193 43.5089 22.69V17.076C42.9676 17.0947 42.5849 17.1413 42.3609 17.216C42.1462 17.2907 41.9969 17.4447 41.9129 17.678C41.8289 17.902 41.7542 18.3127 41.6889 18.91L40.5409 18.994C40.6062 18.2193 40.6622 17.2253 40.7089 16.012L40.8629 15.858L42.2489 16.012H46.6169L48.0309 15.858L48.1849 16.012C48.2036 17.132 48.2502 18.098 48.3249 18.91L47.1769 18.994C47.1022 18.3593 47.0229 17.9253 46.9389 17.692C46.8642 17.4587 46.7242 17.3047 46.5189 17.23C46.3229 17.146 45.9682 17.0947 45.4549 17.076C45.4082 17.7667 45.3662 18.7047 45.3289 19.89C45.3009 21.0753 45.2869 22.1533 45.2869 23.124C45.2869 23.4693 45.3476 23.7167 45.4689 23.866C45.5902 24.0153 45.7862 24.09 46.0569 24.09C46.2902 24.09 46.5376 24.076 46.7989 24.048L46.8549 24.118L46.7289 25.056C45.7396 25.0187 44.9369 25 44.3209 25C43.8356 25 43.0609 25.028 41.9969 25.084L42.1089 24.174Z" fill="black"/>
<path d="M53.9834 25L54.0534 24.174C54.3708 24.146 54.5994 24.118 54.7394 24.09C54.8888 24.0527 54.9914 24.006 55.0474 23.95C55.1034 23.8847 55.1314 23.7913 55.1314 23.67C55.1314 23.558 55.1081 23.3947 55.0614 23.18L54.7674 22.102C54.2821 22.0833 53.8528 22.074 53.4794 22.074C53.3114 22.074 52.9614 22.0973 52.4294 22.144L52.1354 22.172L51.7854 23.25C51.7294 23.4553 51.7014 23.6 51.7014 23.684C51.7014 23.852 51.7481 23.9687 51.8414 24.034C51.9441 24.0993 52.1168 24.132 52.3594 24.132H52.9614L53.0314 24.23L52.9334 25.084C52.8028 25.0747 52.5228 25.056 52.0934 25.028C51.6641 25.0093 51.2628 25 50.8894 25C50.4974 25 50.1428 25.0047 49.8254 25.014C49.5174 25.0233 49.3121 25.0327 49.2094 25.042L49.3074 24.132C49.5221 24.0947 49.6994 24.006 49.8394 23.866C49.9794 23.726 50.1101 23.4973 50.2314 23.18L52.7374 16.082L54.8794 15.858L55.0334 15.928C55.1734 16.46 55.4628 17.552 55.9014 19.204C56.3494 20.8467 56.7321 22.1673 57.0494 23.166C57.1521 23.502 57.2828 23.74 57.4414 23.88C57.6001 24.02 57.8381 24.104 58.1554 24.132L58.2114 24.23L58.1134 25.042C57.9921 25.0327 57.7634 25.0233 57.4274 25.014C57.0914 25.0047 56.7508 25 56.4054 25C55.9108 25 55.4254 25.014 54.9494 25.042C54.4828 25.0793 54.1841 25.1027 54.0534 25.112L53.9834 25ZM53.4794 20.996C53.5821 20.996 53.9274 20.982 54.5154 20.954L53.6894 17.832H53.5074L52.4714 20.996H53.4794Z" fill="black"/>
<path d="M60.6726 24.174C61.1019 24.1367 61.4099 24.0807 61.5966 24.006C61.7832 23.9313 61.9092 23.8007 61.9746 23.614C62.0399 23.4273 62.0726 23.1193 62.0726 22.69V17.076C61.5312 17.0947 61.1486 17.1413 60.9246 17.216C60.7099 17.2907 60.5606 17.4447 60.4766 17.678C60.3926 17.902 60.3179 18.3127 60.2526 18.91L59.1046 18.994C59.1699 18.2193 59.2259 17.2253 59.2726 16.012L59.4266 15.858L60.8126 16.012H65.1806L66.5946 15.858L66.7486 16.012C66.7672 17.132 66.8139 18.098 66.8886 18.91L65.7406 18.994C65.6659 18.3593 65.5866 17.9253 65.5026 17.692C65.4279 17.4587 65.2879 17.3047 65.0826 17.23C64.8866 17.146 64.5319 17.0947 64.0186 17.076C63.9719 17.7667 63.9299 18.7047 63.8926 19.89C63.8646 21.0753 63.8506 22.1533 63.8506 23.124C63.8506 23.4693 63.9112 23.7167 64.0326 23.866C64.1539 24.0153 64.3499 24.09 64.6206 24.09C64.8539 24.09 65.1012 24.076 65.3626 24.048L65.4186 24.118L65.2926 25.056C64.3032 25.0187 63.5006 25 62.8846 25C62.3992 25 61.6246 25.028 60.5606 25.084L60.6726 24.174Z" fill="black"/>
<path d="M68.9939 24.23C69.4046 24.146 69.6799 24.0293 69.8199 23.88C69.9599 23.7213 70.0299 23.446 70.0299 23.054V17.636C70.0299 17.3467 69.9973 17.1553 69.9319 17.062C69.8666 16.9593 69.7313 16.908 69.5259 16.908L69.0359 16.922L68.9659 16.81L69.0779 15.998L71.0099 16.012C71.3179 16.012 71.9713 15.9793 72.9699 15.914L72.8999 16.838C72.5453 16.8847 72.3073 16.9593 72.1859 17.062C72.0739 17.1553 72.0086 17.3327 71.9899 17.594C71.8686 19.7967 71.8079 21.6493 71.8079 23.152C71.8079 23.5347 71.8453 23.7913 71.9199 23.922C71.9946 24.0527 72.1393 24.118 72.3539 24.118C72.4566 24.118 72.6619 24.104 72.9699 24.076L73.0259 24.16L72.8999 25.042L72.3959 25.028L70.8419 25C70.4126 25 69.7686 25.042 68.9099 25.126L68.9939 24.23Z" fill="black"/>
<path d="M79.3012 25.168C78.4799 25.168 77.7659 24.9907 77.1592 24.636C76.5619 24.272 76.0999 23.7587 75.7732 23.096C75.4559 22.4333 75.2972 21.6493 75.2972 20.744C75.2972 19.7733 75.4885 18.9193 75.8712 18.182C76.2539 17.4447 76.7905 16.8707 77.4812 16.46C78.1812 16.0493 78.9839 15.844 79.8892 15.844C80.7292 15.844 81.4525 16.0213 82.0592 16.376C82.6752 16.7213 83.1419 17.2253 83.4592 17.888C83.7859 18.5413 83.9492 19.3207 83.9492 20.226C83.9492 21.1967 83.7532 22.06 83.3612 22.816C82.9785 23.5627 82.4325 24.1413 81.7232 24.552C81.0232 24.9627 80.2159 25.168 79.3012 25.168ZM79.6652 23.978C80.3372 23.978 80.8599 23.7167 81.2332 23.194C81.6159 22.662 81.8072 21.9153 81.8072 20.954C81.8072 19.7313 81.6065 18.798 81.2052 18.154C80.8039 17.5007 80.2345 17.174 79.4972 17.174C78.8345 17.174 78.3165 17.44 77.9432 17.972C77.5792 18.4947 77.3972 19.2367 77.3972 20.198C77.3972 21.4207 77.5932 22.3587 77.9852 23.012C78.3865 23.656 78.9465 23.978 79.6652 23.978Z" fill="black"/>
<path d="M93.1165 25.378C92.2018 23.922 91.2778 22.5033 90.3445 21.122C89.4205 19.7407 88.9585 19.0593 88.9585 19.078H88.8325L88.8185 23.488C88.8185 23.7307 88.8511 23.8987 88.9165 23.992C88.9911 24.076 89.1171 24.118 89.2945 24.118L89.9105 24.09L89.9805 24.174L89.8405 25.056C89.7098 25.0467 89.4671 25.0327 89.1125 25.014C88.7578 25.0047 88.4031 25 88.0485 25C87.7405 25 87.4091 25.014 87.0545 25.042C86.6998 25.0793 86.4711 25.1027 86.3685 25.112L86.4665 24.188C86.7558 24.1507 86.9658 24.0667 87.0965 23.936C87.2271 23.796 87.2971 23.586 87.3065 23.306L87.4745 17.748C87.4745 17.4493 87.3998 17.2393 87.2505 17.118C87.1011 16.9967 86.7978 16.9127 86.3405 16.866L86.2425 16.74L86.3405 15.942C86.4431 15.9513 86.6625 15.9653 86.9985 15.984C87.3345 16.0027 87.6471 16.012 87.9365 16.012C88.1791 16.012 88.4358 16.0073 88.7065 15.998C88.9865 15.9793 89.1685 15.9653 89.2525 15.956C90.0178 17.2067 90.8391 18.4947 91.7165 19.82C92.6031 21.1453 93.0465 21.7987 93.0465 21.78H93.1865L93.1585 17.51C93.1491 17.2953 93.1071 17.1413 93.0325 17.048C92.9671 16.9547 92.8551 16.908 92.6965 16.908L92.2065 16.922L92.1645 16.824L92.2625 15.956C92.3931 15.9653 92.6311 15.9793 92.9765 15.998C93.3311 16.0073 93.6858 16.012 94.0405 16.012C94.3205 16.012 94.6331 16.0027 94.9785 15.984C95.3331 15.9653 95.5665 15.9513 95.6785 15.942L95.6085 16.866C95.2911 16.9127 95.0625 17.0013 94.9225 17.132C94.7918 17.2627 94.7218 17.468 94.7125 17.748L94.5305 25.196L93.1165 25.378Z" fill="black"/>
</svg>
